<?xml version="1.0" encoding="UTF-8" standalone="no"?>
<svg
   xmlns:dc="http://purl.org/dc/elements/1.1/"
   xmlns:cc="http://creativecommons.org/ns#"
   xmlns:rdf="http://www.w3.org/1999/02/22-rdf-syntax-ns#"
   xmlns:svg="http://www.w3.org/2000/svg"
   xmlns="http://www.w3.org/2000/svg"
   viewBox="0 0 666.66669 666.66669"
   height="666.66669"
   width="666.66669"
   xml:space="preserve"
   id="svg2"
   version="1.1"><metadata
     id="metadata8"><rdf:RDF><cc:Work
         rdf:about=""><dc:format>image/svg+xml</dc:format><dc:type
           rdf:resource="http://purl.org/dc/dcmitype/StillImage" /></cc:Work></rdf:RDF></metadata><defs
     id="defs6" /><g
     transform="matrix(1.3333333,0,0,-1.3333333,0,666.66667)"
     id="g10"><g
       transform="scale(0.1)"
       id="g12"><path
         id="path14"
         style="fill:#ffffff;fill-opacity:1;fill-rule:nonzero;stroke:none"
         d="M 5000,0 H 0 V 5000 H 5000 V 0" /><g
         transform="scale(10)"
         id="g16"><text
           id="text20"
           style="font-variant:normal;font-weight:800;font-size:15.85490036px;font-family:Montserrat;-inkscape-font-specification:Montserrat-ExtraBold;writing-mode:lr-tb;fill:#2e3d7c;fill-opacity:1;fill-rule:nonzero;stroke:none"
           transform="matrix(1,0,0,-1,34.0172,365.306)"><tspan
             id="tspan18"
             y="0"
             x="0 18.296396 33.929199 48.832504 63.911102 76.991188 93.575195">MARATON</tspan></text>
</g><g
         transform="scale(10)"
         id="g22"><text
           id="text26"
           style="font-variant:normal;font-weight:normal;font-size:7.67040014px;font-family:Montserrat;-inkscape-font-specification:Montserrat-Regular;writing-mode:lr-tb;fill:#73d0c7;fill-opacity:1;fill-rule:nonzero;stroke:none"
           transform="matrix(1,0,0,-1,44.8977,353.637)"><tspan
             id="tspan24"
             y="0"
             x="0 7.0795875 14.688478 22.458004 30.228025 34.078621 41.848644 49.312027 52.855492 59.106945 66.876976 74.846703 81.512238">RUNNING SHOES</tspan></text>
</g><path
         id="path28"
         style="fill:#2e3d7c;fill-opacity:1;fill-rule:nonzero;stroke:none"
         d="m 1314.04,4092.13 c -33.3,25.92 -134.87,64.43 -236.55,102.48 -0.4,10.84 -6.68,21.04 -17.25,25.76 -11.84,5.28 -25.22,1.99 -33.52,-7.09 -4.53,1.63 -8.95,3.2 -13.29,4.74 -0.27,10.96 -6.59,21.33 -17.262,26.1 -12.434,5.55 -26.594,1.67 -34.738,-8.47 -6.594,2.08 -12.426,3.82 -17.453,5.21 -9.7,16.96 -35.582,59.75 -49.969,59.75 -16.836,0 -51.719,-48.71 -30.485,-91.93 -29.753,-25.5 -67.273,-42.13 -113.085,-42.13 -43.93,0 -179.106,-13.25 -199.383,40.83 -19.367,51.64 -155.883,-45.45 -123.926,-224.15 2.652,-14.84 15.359,-25.79 30.434,-25.79 h 863.967 c 14.54,0 27.15,10.1 30.14,24.33 6.5,30.86 -6.71,86.32 -37.63,110.36" /><path
         id="path30"
         style="fill:#ffffff;fill-opacity:1;fill-rule:nonzero;stroke:none"
         d="m 859.863,3993.02 h -58.73 l 140.195,195.13 h 58.732 L 859.863,3993.02" /><path
         id="path32"
         style="fill:#73d0c7;fill-opacity:1;fill-rule:nonzero;stroke:none"
         d="m 1035.04,3993.02 h -58.731 l -34.981,195.13 h 58.732 l 34.98,-195.13" /><path
         id="path34"
         style="fill:#ffffff;fill-opacity:1;fill-rule:nonzero;stroke:none"
         d="m 1045.19,4089.82 -69.545,-96.8 h 58.735 l 69.54,96.8 h -58.73" /><path
         id="path36"
         style="fill:#73d0c7;fill-opacity:1;fill-rule:nonzero;stroke:none"
         d="m 1045.19,4089.82 66.18,-96.8 h 58.73 l -66.18,96.8 h -58.73" /><g
         transform="scale(10)"
         id="g38"><text
           id="text42"
           style="font-variant:normal;font-weight:normal;font-size:7.67040014px;font-family:Montserrat;-inkscape-font-specification:Montserrat-Regular;writing-mode:lr-tb;fill:#73d0c7;fill-opacity:1;fill-rule:nonzero;stroke:none"
           transform="matrix(1,0,0,-1,211.081,346)"><tspan
             id="tspan40"
             y="0"
             x="0 7.0341864 14.643078 20.817404 26.677759 34.64748 43.506378 47.050327 53.301311 61.071815 69.041542">CUSTOM SHOE</tspan></text>
</g><g
         transform="scale(10)"
         id="g44"><text
           id="text48"
           style="font-variant:normal;font-weight:800;font-size:15.85490036px;font-family:Montserrat;-inkscape-font-specification:Montserrat-ExtraBold;writing-mode:lr-tb;fill:#2e3d7c;fill-opacity:1;fill-rule:nonzero;stroke:none"
           transform="matrix(1,0,0,-1,213.917,358.583)"><tspan
             id="tspan46"
             y="0"
             x="0 13.35008 26.31888 41.951683 60.247574">FLAME</tspan></text>
</g><path
         id="path50"
         style="fill:#2e3d7c;fill-opacity:1;fill-rule:nonzero;stroke:none"
         d="m 2965.71,3871.3 c -0.13,-17.46 -31.18,-63.51 -66.1,-63.23 -34.93,0.27 -108.54,5.26 -116.79,7.1 -8.25,1.84 -3.61,21.9 -12.89,21.35 -9.28,-0.54 -13.3,-11.26 -24.9,-11.94 -11.59,-0.68 -161.64,81.53 -164.71,94.15 -3.06,12.62 2.37,34.79 -2.27,34.52 -4.64,-0.28 -24.3,-12.61 -30.09,-12.13 -19,1.59 -183.83,127.56 -197.28,138.4 -13.43,10.85 -8.45,44.89 5.87,58.53 14.33,13.65 60.66,120.61 117.49,131.91 37.33,7.42 49.15,-44.61 104.56,-68.82 29.52,-12.89 67.74,-23.94 67.74,-23.94 0,0 22.92,45.57 31.03,46.04 8.13,0.47 42.5,-89.43 60.78,-123.27 18.29,-33.83 119.1,-165.22 176.06,-183.98 56.96,-18.76 51.5,-44.69 51.5,-44.69" /><path
         id="path52"
         style="fill:#73d0c7;fill-opacity:1;fill-rule:nonzero;stroke:none"
         d="m 2613.13,4222.23 c -7.78,16.72 -14.27,32.49 -22.08,47.41 -7.62,14.86 -15.39,29.24 -25.62,41.49 -10.25,12.19 -22.91,21.72 -36.97,27.97 -6.81,3.68 -14.54,5.19 -21.93,7.52 -7.58,1.52 -15.31,2.26 -23.13,2.24 -15.64,-0.32 -31.57,-3.34 -47.49,-8.41 -15.91,-5 -31.88,-11.53 -48.56,-17.8 -16.64,-6.28 -34.33,-12.52 -54.49,-13.82 -10.01,-0.55 -20.79,0.54 -30.74,4.47 -9.98,3.9 -18.42,10.53 -25.14,17.79 l -0.04,0.05 16.22,3.04 c -1.05,-2.64 -2.1,-7 -2.6,-10.66 -0.34,-3.84 -0.59,-7.72 -0.04,-11.49 0.82,-7.56 3.6,-14.69 8.01,-20.97 4.2,-6.43 10.63,-11.57 17.37,-16.22 3.69,-1.99 6.97,-4.52 11.02,-6.08 l 12.33,-5.62 c 9.34,-3.85 18.32,-9.73 26.2,-17.5 7.48,-7.87 14.35,-20.17 11.53,-33.9 -2.71,-13.7 -14.22,-22.97 -24.97,-26.4 -10.97,-3.62 -22.17,-3.88 -32.3,-1.9 -20.63,3.47 -38.32,12.95 -54.35,23.1 -16.02,10.23 -30.42,20.21 -46.19,24.46 -15.74,4.15 -32.82,2.39 -49.64,-2.11 -16.93,-4.26 -33.35,-12.09 -49.64,-19.68 l -3.73,18.92 c 16.04,-1.59 30.88,-4.75 45.93,-9.98 14.77,-5.35 29.81,-12.72 41.62,-25.81 5.82,-6.5 10.46,-14.64 12.7,-23.45 2.3,-8.8 2.21,-17.88 0.78,-26.3 -1.58,-8.39 -4.4,-16.17 -7.75,-23.51 -1.97,-3.77 -4.56,-7.95 -7.23,-11.52 -3.21,-3.08 -6.07,-6.87 -9.77,-9.18 -14.29,-10.52 -30.91,-14.58 -46.87,-15.84 -16.07,-1.12 -32.08,0.48 -47.32,4.72 -15.25,4.17 -29.91,10.42 -43.42,18.75 -13.34,8.62 -25.38,19.26 -35.61,31.56 l -0.05,0.05 17.65,4.45 c -1.29,-10.61 -1.55,-22.55 -0.93,-33.82 0.23,-5.7 0.94,-11.36 1.52,-17 1.1,-5.55 1.65,-11.24 3.14,-16.66 5.14,-21.93 15.02,-42.21 29.19,-58.65 3.88,-3.79 7.28,-8.1 11.48,-11.55 l 13.06,-9.83 c 9.72,-5.11 19.05,-11.06 29.98,-13.98 5.37,-1.57 10.38,-4.12 16.04,-4.94 l 16.73,-3.14 c 5.51,-1.31 11.23,-1.7 16.96,-2.08 5.71,-0.32 11.41,-1.35 17.12,-1.06 22.9,-0.82 45.63,2.53 68.5,7.88 22.88,5.13 46.41,12.43 71.89,14.94 25.38,2.69 52.02,-0.9 75.24,-10.84 l 16.94,-8.26 c 5.19,-3.48 10.44,-6.79 15.49,-10.36 5.17,-3.39 9.83,-7.44 14.36,-11.65 4.58,-4.1 8.97,-8.42 13.2,-12.84 -23.14,8.69 -44.08,19.76 -66.29,25.85 -21.86,6.73 -44.08,9.67 -66.52,6.61 -22.44,-2.73 -44.95,-10.44 -68.83,-16.34 -23.81,-5.96 -49.05,-10.12 -74.31,-9.58 -6.33,-0.36 -12.58,0.55 -18.87,0.91 -6.28,0.45 -12.55,0.94 -18.78,2.39 l -18.71,3.61 c -6.27,1 -12.24,3.85 -18.36,5.71 -12.4,3.47 -23.71,10.4 -35.08,16.65 l -15.71,11.93 c -5.05,4.2 -9.26,9.36 -13.88,14.04 -17.43,19.92 -27.89,44.78 -33.06,69.72 -5.2,25.23 -5.5,50.23 -1.19,75.93 l 3.5,20.89 14.15,-16.43 0.04,-0.05 c 8.77,-10.48 19.1,-19.62 30.65,-27.14 11.75,-7.22 24.58,-12.68 37.9,-16.34 13.3,-3.74 27.25,-5.05 40.7,-4.11 13.38,0.98 26.6,4.65 36.27,11.84 2.68,1.55 4.16,4.06 6.41,5.95 1.64,2.37 3.04,4.54 4.55,7.26 2.8,6.13 5,12.38 6.19,18.56 2.21,12.43 -0.54,23.95 -8.75,32.98 -8.1,9.12 -20.4,15.63 -33.34,20.23 -12.92,4.56 -27.29,7.56 -40.74,8.88 l -36.57,3.6 32.85,15.31 c 17.18,8.02 34.36,16.26 53.4,21.12 18.71,5.03 39.66,7.48 59.95,2.12 20.24,-5.52 36.62,-17.35 51.69,-26.85 15.04,-9.63 30.9,-17.68 46.95,-20.3 7.98,-1.67 15.93,-1.08 22.47,1.03 6.59,2.21 10.95,6.56 11.94,11.36 1.23,4.81 -1.46,11.09 -6.48,16.37 -5.33,5.1 -11.93,9.78 -19.74,12.92 -16.66,7.07 -36.67,16.71 -48.99,34.73 -6.22,8.81 -10.36,19.43 -11.51,30.27 -1.11,11.06 -0.07,21.2 4.22,32.37 l 5.01,13.04 11.22,-9.99 0.03,-0.03 c 11.57,-10.29 24.86,-14.37 39.83,-12.38 14.97,1.81 30.58,8.28 46.55,14.74 15.97,6.64 32.35,13.96 49.95,19.53 17.47,5.7 36.34,9.9 55.88,9.83 39.25,0.61 78.38,-19.09 101.9,-49.78 23.74,-30.21 34.95,-68.58 27.91,-104.96" /><g
         transform="scale(10)"
         id="g54"><text
           id="text58"
           style="font-variant:normal;font-weight:800;font-size:15.85490036px;font-family:Montserrat;-inkscape-font-specification:Montserrat-ExtraBold;writing-mode:lr-tb;fill:#2e3d7c;fill-opacity:1;fill-rule:nonzero;stroke:none"
           transform="matrix(1,0,0,-1,343.928,352.763)"><tspan
             id="tspan56"
             y="0"
             x="0 18.534214 23.909025 36.688072 48.896347 59.154469 63.768242 74.02636 86.805412 100.21866 110.87315">WINGS SHOES</tspan></text>
</g><g
         transform="scale(10)"
         id="g60"><text
           id="text64"
           style="font-variant:normal;font-weight:normal;font-size:7.67040014px;font-family:Montserrat;-inkscape-font-specification:Montserrat-Regular;writing-mode:lr-tb;fill:#73d0c7;fill-opacity:1;fill-rule:nonzero;stroke:none"
           transform="matrix(1,0,0,-1,368.509,339.094)"><tspan
             id="tspan62"
             y="0"
             x="0 6.3207932 14.290515 21.369612 24.913559 31.993147 39.602036 47.372059 55.141594 61.807125 68.886711">FOR RUNNERS</tspan></text>
</g><path
         id="path66"
         style="fill:#73d0c7;fill-opacity:1;fill-rule:nonzero;stroke:none"
         d="m 4316.55,3794.15 c 0,-8.34 -155.9,-15.1 -348.21,-15.1 -192.31,0 -348.21,6.76 -348.21,15.1 0,8.34 155.9,15.1 348.21,15.1 192.31,0 348.21,-6.76 348.21,-15.1" /><path
         id="path68"
         style="fill:#2e3d7c;fill-opacity:1;fill-rule:nonzero;stroke:none"
         d="m 3736.45,4295.62 c -6,11.05 -8.25,21.33 -8.99,29.35 l 55.7,-13.93 c 1.23,-0.31 2.46,-0.45 3.66,-0.45 6.72,0 12.84,4.55 14.54,11.36 2.01,8.04 -2.87,16.19 -10.91,18.19 l -72.37,18.1 v 0 c -15.66,5.4 -48.68,22.4 -50.8,40.53 -1.58,13.36 1.65,22.78 4.9,28.58 111.85,-53.35 207.66,-59.3 285.11,-64.11 66.77,-4.14 115.02,-7.14 141.96,-39.39 28.32,-33.9 31.13,-95.16 6.55,-142.49 -13.25,-25.49 -45.97,-67.34 -114.81,-61.65 -98.57,8.22 -144.39,78.32 -161.26,113.25 l 73.54,0.34 c 8.28,0.04 14.97,6.78 14.93,15.06 -0.04,8.27 -6.74,14.94 -15,14.94 -0.02,0 -0.05,0 -0.07,0 l -90.79,-0.42 -4.83,0.07 c -0.54,0 -53.96,1.13 -71.06,32.67 z m 559.42,-383.72 c -22.41,4.99 -52.46,25.04 -82.72,50.07 5.65,7.28 5.94,17.69 0.01,25.3 -5.91,7.58 -16.04,9.83 -24.48,6.17 -5.89,15.2 -11.12,29.78 -15.51,42.9 l 2.55,0.87 c 10.8,3.68 16.57,15.41 12.89,26.2 -3.68,10.8 -15.41,16.57 -26.21,12.89 l -1.01,-0.35 c -0.74,3.06 -1.33,5.76 -1.74,8.05 -1.41,7.7 -2.73,17.7 -4.01,28.82 h 1.81 c 11.41,0 20.65,9.25 20.65,20.65 0,11.41 -9.24,20.65 -20.65,20.65 h -6.14 c -1.76,17.46 -3.54,34.49 -5.42,47.76 14.11,50.77 5.77,106.03 -23.61,141.2 -35.22,42.17 -91.66,45.67 -163.13,50.1 -77.23,4.8 -173.33,10.77 -284.37,66.29 l -8.59,4.29 -7.5,-6 c -1.06,-0.85 -26.04,-21.37 -21.21,-62.49 3.8,-32.28 40.43,-52.49 59.71,-60.98 -0.32,-12.35 1.53,-32.04 12.89,-52.98 14.85,-27.37 44.25,-39.25 66.84,-44.41 -12.35,-13.61 -19.92,-35.22 -12.35,-46.86 9.93,-15.26 134.02,-195.37 152.55,-203.16 5.64,-2.37 29.37,3.57 34.11,2.33 4.75,-1.24 -7.94,-21.7 -8.98,-35.35 -0.48,-6.19 115.71,-155.54 185.7,-155.54 12.25,0 15.19,13.58 24.87,15.13 9.68,1.54 6.91,-19.98 15.76,-21.05 8.85,-1.07 86.59,1.4 123.26,4.77 36.67,3.36 64.41,54.91 62.73,73.25 0,0 3.02,27.76 -58.7,41.48" /><g
         transform="scale(10)"
         id="g70"><text
           id="text74"
           style="font-variant:normal;font-weight:normal;font-size:7.67040014px;font-family:Montserrat;-inkscape-font-specification:Montserrat-Regular;writing-mode:lr-tb;fill:#73d0c7;fill-opacity:1;fill-rule:nonzero;stroke:none"
           transform="matrix(1,0,0,-1,44.8977,200.911)"><tspan
             id="tspan72"
             y="0"
             x="0 7.0795875 14.688478 22.458004 30.228025 34.078621 41.848644 49.312027 52.855492 59.106945 66.876976 74.846703 81.512238">RUNNING SHOES</tspan></text>
</g><path
         id="path76"
         style="fill:#2e3d7c;fill-opacity:1;fill-rule:nonzero;stroke:none"
         d="m 1339.86,2579.91 c -0.15,-19.49 -34.79,-70.87 -73.77,-70.56 -25.3,0.19 -88.65,-0.07 -132.59,-0.27 -29.64,-0.14 -58.57,8.21 -83.58,24.11 -104.9,66.73 -389.279,249.81 -402.475,281.6 -8.656,20.85 -3.386,47.59 12.606,62.81 15.984,15.23 67.683,134.6 131.109,147.21 41.653,8.28 54.856,-49.79 116.688,-76.8 32.945,-14.39 75.593,-26.72 75.593,-26.72 0,0 25.579,50.85 34.639,51.38 9.06,0.53 47.43,-99.8 67.83,-137.56 20.4,-37.77 132.91,-184.39 196.48,-205.33 63.56,-20.94 57.47,-49.87 57.47,-49.87" /><path
         id="path78"
         style="fill:#73d0c7;fill-opacity:1;fill-rule:nonzero;stroke:none"
         d="m 775.563,2839.42 106.871,-134.7 c 4.699,-5.93 13.527,-6.4 18.836,-1.01 l 53.687,54.43 c 5.574,5.66 14.926,4.81 19.391,-1.76 l 57.942,-85.28 c 7.98,-11.73 26.26,-3.38 22.6,10.34 l -37.42,140.04 c -2.5,9.35 -14.16,12.51 -21.04,5.7 l -79.782,-79.04 c -7.199,-7.13 -19.445,-3.27 -21.257,6.7 l -29.254,160.88 c -1.801,9.91 -13.93,13.8 -21.164,6.79 l -68.309,-66.21 c -4.648,-4.5 -5.125,-11.8 -1.101,-16.88" /><path
         id="path80"
         style="fill:#73d0c7;fill-opacity:1;fill-rule:nonzero;stroke:none"
         d="M 917.984,2530.57 H 510.211 c -6.164,0 -11.164,5 -11.164,11.16 0,6.17 5,11.17 11.164,11.17 h 407.773 c 6.161,0 11.161,-5 11.161,-11.17 0,-6.16 -5,-11.16 -11.161,-11.16" /><path
         id="path82"
         style="fill:#73d0c7;fill-opacity:1;fill-rule:nonzero;stroke:none"
         d="m 780.227,2624.25 h -72.981 c -6.16,0 -11.16,5 -11.16,11.16 0,6.16 5,11.16 11.16,11.16 h 72.981 c 6.16,0 11.16,-5 11.16,-11.16 0,-6.16 -5,-11.16 -11.16,-11.16" /><path
         id="path84"
         style="fill:#73d0c7;fill-opacity:1;fill-rule:nonzero;stroke:none"
         d="M 642.461,2624.25 H 435.566 c -6.164,0 -11.164,5 -11.164,11.16 0,6.16 5,11.16 11.164,11.16 h 206.895 c 6.16,0 11.16,-5 11.16,-11.16 0,-6.16 -5,-11.16 -11.16,-11.16" /><path
         id="path86"
         style="fill:#73d0c7;fill-opacity:1;fill-rule:nonzero;stroke:none"
         d="M 642.461,2717.92 H 524.848 c -6.16,0 -11.16,5 -11.16,11.17 0,6.16 5,11.16 11.16,11.16 h 117.613 c 6.16,0 11.16,-5 11.16,-11.16 0,-6.17 -5,-11.17 -11.16,-11.17" /><g
         transform="scale(10)"
         id="g88"><text
           id="text92"
           style="font-variant:normal;font-weight:800;font-size:15.85490036px;font-family:Montserrat;-inkscape-font-specification:Montserrat-ExtraBold;writing-mode:lr-tb;fill:#2e3d7c;fill-opacity:1;fill-rule:nonzero;stroke:none"
           transform="matrix(1,0,0,-1,35.8953,218.738)"><tspan
             id="tspan90"
             y="0"
             x="0 13.238794 29.18849 44.821785 60.771484 77.038071 90.864273">THUNDER</tspan></text>
</g><path
         id="path94"
         style="fill:#73d0c7;fill-opacity:1;fill-rule:nonzero;stroke:none"
         d="m 4059.79,2466.05 h -91.18 v 20 h 91.18 v -20" /><path
         id="path96"
         style="fill:#73d0c7;fill-opacity:1;fill-rule:nonzero;stroke:none"
         d="m 3859.88,2466.05 h -91.17 v 20 h 91.17 v -20" /><g
         transform="scale(10)"
         id="g98"><text
           id="text102"
           style="font-variant:normal;font-weight:800;font-size:15.85490036px;font-family:Montserrat;-inkscape-font-specification:Montserrat-ExtraBold;writing-mode:lr-tb;fill:#2e3d7c;fill-opacity:1;fill-rule:nonzero;stroke:none"
           transform="matrix(1,0,0,-1,343.538,214.396)"><tspan
             id="tspan100"
             y="0"
             x="0 10.591312 23.687004 36.180668 47.627468 58.678265 64.084518 75.135315 88.706604 102.91272 114.35954">LACES SHOES</tspan></text>
</g><g
         transform="scale(10)"
         id="g104"><text
           id="text108"
           style="font-variant:normal;font-weight:normal;font-size:7.67040014px;font-family:Montserrat;-inkscape-font-specification:Montserrat-Regular;writing-mode:lr-tb;fill:#73d0c7;fill-opacity:1;fill-rule:nonzero;stroke:none"
           transform="matrix(1,0,0,-1,340.88,200.911)"><tspan
             id="tspan106"
             y="0"
             x="0 6.9648461 14.044434 22.013664 28.403307 35.06884 41.320312 47.571789 51.421894 59.391617 67.161636 74.195351 80.247101 83.790535 90.870125 98.479012 106.24904 114.01906 117.86916 125.63919">PROFESSIONAL RUNNING</tspan></text>
</g><path
         id="path110"
         style="fill:#2e3d7c;fill-opacity:1;fill-rule:nonzero;stroke:none"
         d="m 4073.95,2797.97 v 0 z m 68,-13.48 0.2,-0.06 c -0.06,0.02 -0.12,0.04 -0.2,0.06 z m 6.51,-1.93 0.15,-0.05 c -0.06,0.02 -0.11,0.03 -0.15,0.05 z m 130.76,-46.05 0.02,-0.01 z m 8.3,-9.29 c 0,-0.01 0,-0.02 0,-0.03 0,0.01 0,0.02 0,0.03 z m 220.53,-273.88 h -444.41 c -13.8,0 -24.99,11.19 -24.99,25 v 0 c 0,13.8 11.19,24.99 24.99,24.99 h 444.41 c 2.65,0 5.19,2.09 5.72,4.69 4.51,21.99 -5.44,67.3 -28.56,85.28 -31.38,24.42 -147.01,67.72 -223.51,96.38 -11.43,4.27 -19.96,13.94 -22.81,25.88 -0.22,0.93 -0.8,2.2 -2.31,2.87 -2.01,0.89 -3.59,-0.07 -4.2,-0.51 -9.68,-7.09 -22.17,-8.98 -33.53,-5.14 l -0.53,0.18 c 0,0 0,0 -0.02,0.01 l -0.16,0.06 c -11.71,4.18 -20.43,13.99 -23.3,26.21 -0.19,0.83 -0.74,2.23 -2.36,2.95 -2.17,0.97 -3.91,-0.26 -4.39,-0.65 -9.63,-7.84 -22.33,-10.41 -34.03,-6.86 l -6.03,1.79 c -9.12,2.72 -16.88,8.9 -21.69,17.1 -11.78,20.09 -20.63,31.97 -26.2,38.35 -5.35,-6.91 -11.86,-19.27 -11.74,-33.7 0.23,-33.51 -19.06,-64.14 -49.14,-78.04 -25.53,-11.77 -53.21,-17.73 -82.31,-17.73 -5.9,0 -13.49,-0.26 -22.26,-0.54 -65.2,-2.12 -173.73,-5.65 -199.49,55.01 -5.59,-1.06 -17.6,-6.66 -31.66,-21.3 -15.59,-16.2 -64.87,-77.56 -45.28,-187.1 0.53,-3.01 2.99,-5.19 5.82,-5.19 h 133.37 c 13.8,0 24.99,-11.19 24.99,-24.99 v 0 c 0,-13.81 -11.19,-25 -24.99,-25 h -133.37 c -27.09,0 -50.23,19.5 -55.04,46.37 -25.72,143.89 49.55,248.03 111.43,265.01 27.64,7.58 51.37,-3.28 60.51,-27.67 11.17,-29.76 117.24,-26.3 152.09,-25.17 9.41,0.31 17.56,0.57 23.88,0.57 21.82,0 42.46,4.42 61.35,13.13 12.11,5.6 20.2,18.57 20.1,32.27 -0.24,31.63 14.9,58.25 29.16,72.61 10.43,10.5 21.82,16.05 32.97,16.05 14.59,0 32.54,-7.54 64.63,-60.42 14.66,7.92 32.16,8.7 47.73,1.75 10.49,-4.69 18.99,-12.37 24.59,-21.97 12.75,4.33 26.9,3.85 39.49,-1.79 13.19,-5.89 23.24,-16.56 28.36,-29.86 110.02,-41.26 196.56,-74.99 230.59,-101.45 38.08,-29.64 55.19,-95.08 46.74,-135.27 -5.37,-25.58 -28.34,-44.16 -54.61,-44.16" /><path
         id="path112"
         style="fill:#73d0c7;fill-opacity:1;fill-rule:nonzero;stroke:none"
         d="m 923.523,1254.47 v -134.26 h -37.976 v 104.92 h -24.934 v 29.34 h 62.91" /><path
         id="path114"
         style="fill:#2e3d7c;fill-opacity:1;fill-rule:nonzero;stroke:none"
         d="m 1335.32,1084.56 c -1.52,-7.2 -8.02,-12.42 -15.47,-12.42 h -287.19 l 106.78,211.56 c 69.41,-27.9 121.63,-53.52 151.25,-80.67 46.13,-42.29 49.36,-95.99 44.63,-118.47 z m -895.101,1 c -20.793,116.29 33.433,207.7 72.496,238 11.09,8.61 18.031,10.16 20.629,10.16 0.511,0 0.855,-0.07 1.031,-0.14 0.004,-0.01 0.449,-0.4 0.969,-1.77 12.062,-32.18 51.566,-44.92 95.054,-49.57 l -106.043,-210.1 h -68.464 c -7.688,0 -14.282,5.64 -15.672,13.42 z m 285.957,195.13 c 8.898,0.3 16.613,0.55 22.594,0.55 5.074,0 10.054,0.2 14.937,0.56 52.383,3.94 95.762,43.49 107.938,98.41 4.031,18.16 14.937,31.11 20.32,34.48 5.484,-3.92 18.023,-18.53 35.078,-47.71 3.441,-5.89 8.98,-10.19 15.629,-12.13 l 6.113,-1.81 c 8.481,-2.58 17.746,-0.69 24.801,5.06 4.223,3.42 9.875,4.19 14.789,2.02 4.059,-1.82 6.977,-5.38 8.008,-9.77 2.035,-8.71 8.127,-15.73 16.357,-18.89 l 1.78,-0.62 c 8.08,-2.5 16.9,-1.07 23.76,3.95 4.21,3.09 9.5,3.66 14.17,1.58 4.02,-1.81 6.93,-5.33 7.97,-9.69 2.08,-8.66 8.27,-15.7 16.6,-18.84 11.84,-4.43 23.3,-8.79 34.41,-13.08 L 999.055,1072.14 H 557.953 l 104.977,207.98 c 22.601,-0.69 44.75,-0.01 63.246,0.57 z m 584.784,-55.55 c -41.43,37.98 -115.61,70.37 -221.79,110.18 -3.55,12.73 -12.4,23.03 -24.47,28.43 -13.04,5.83 -28.11,4.9 -40.34,-2.27 -3.95,11.63 -12.43,20.96 -23.74,26.02 -1.35,0.61 -2.733,1.05 -4.112,1.51 l 17.102,14.16 c 6.39,5.29 7.27,14.74 1.99,21.13 -5.27,6.36 -14.74,7.25 -21.12,1.98 l -28.835,-23.88 -3.282,45.47 c -0.593,8.25 -7.691,14.53 -16.039,13.88 -8.261,-0.6 -14.476,-7.79 -13.883,-16.05 l 2.547,-35.32 c -24.425,34.83 -36.343,34.92 -42.648,34.92 -22.125,0 -43.707,-30.3 -49.981,-58.59 -9.296,-41.92 -41.808,-72.05 -80.914,-74.99 -4.144,-0.32 -8.375,-0.48 -12.675,-0.48 -6.243,0 -14.29,-0.25 -23.571,-0.56 -44.297,-1.42 -148.097,-4.82 -161.769,31.65 -6.528,17.41 -22.461,24.96 -41.578,19.72 -54.289,-14.9 -137.731,-133.2 -111.164,-281.78 3.96,-22.1 22.968,-38.13 45.203,-38.13 h 863.959 c 21.55,0 40.4,15.23 44.83,36.24 8.28,39.37 -4.99,102.1 -53.72,146.76" /><path
         id="path116"
         style="fill:#2e3d7c;fill-opacity:1;fill-rule:nonzero;stroke:none"
         d="m 769.672,1201.15 h 23.59 l -3.258,-27.61 H 766.41 Z m -36.059,-80.94 h 26.082 l 3.645,28.58 h 23.594 l -3.641,-28.58 h 26.082 l 3.645,28.58 h 27.043 v 24.75 H 816.09 l 3.262,27.61 h 27.234 v 24.75 h -24.168 l 3.641,28.57 h -26.082 l -3.645,-28.57 h -23.594 l 3.649,28.57 h -26.09 l -3.641,-28.57 h -27.238 v -24.75 h 24.172 l -3.262,-27.61 H 713.09 v -24.75 h 24.168 l -3.645,-28.58" /><g
         transform="scale(10)"
         id="g118"><text
           id="text122"
           style="font-variant:normal;font-weight:normal;font-size:7.67040014px;font-family:Montserrat;-inkscape-font-specification:Montserrat-Regular;writing-mode:lr-tb;fill:#73d0c7;fill-opacity:1;fill-rule:nonzero;stroke:none"
           transform="matrix(1,0,0,-1,44.748,61.898)"><tspan
             id="tspan120"
             y="0"
             x="0 7.0795875 14.688478 22.458004 30.228025 34.078621 41.848644 49.312027 52.855492 59.106945 66.876976 74.846703 81.512238">RUNNING SHOES</tspan></text>
</g><g
         transform="scale(10)"
         id="g124"><text
           id="text128"
           style="font-variant:normal;font-weight:800;font-size:15.85490036px;font-family:Montserrat;-inkscape-font-specification:Montserrat-ExtraBold;writing-mode:lr-tb;fill:#2e3d7c;fill-opacity:1;fill-rule:nonzero;stroke:none"
           transform="matrix(1,0,0,-1,32.3457,74.941)"><tspan
             id="tspan126"
             y="0"
             x="0 15.950204 31.583008 49.879406 63.705101 78.608391 95.19239 102.97656">NUMERO 1</tspan></text>
</g><g
         transform="scale(10)"
         id="g130"><text
           id="text134"
           style="font-variant:normal;font-weight:normal;font-size:7.67040014px;font-family:Montserrat;-inkscape-font-specification:Montserrat-Regular;writing-mode:lr-tb;fill:#73d0c7;fill-opacity:1;fill-rule:nonzero;stroke:none"
           transform="matrix(1,0,0,-1,210.544,62.359)"><tspan
             id="tspan132"
             y="0"
             x="0 7.0341864 14.643078 20.817404 26.677759 34.64748 43.506378 47.050327 53.301311 61.071815 69.041542">CUSTOM SHOE</tspan></text>
</g><g
         transform="scale(10)"
         id="g136"><text
           id="text140"
           style="font-variant:normal;font-weight:800;font-size:15.85490036px;font-family:Montserrat;-inkscape-font-specification:Montserrat-ExtraBold;writing-mode:lr-tb;fill:#2e3d7c;fill-opacity:1;fill-rule:nonzero;stroke:none"
           transform="matrix(1,0,0,-1,193.381,74.941)"><tspan
             id="tspan138"
             y="0"
             x="0 13.254395 29.838398 46.264187 59.233875 80.558083 96.190857 111.09515">FOOTWARE</tspan></text>
</g><path
         id="path142"
         style="fill:#73d0c7;fill-opacity:1;fill-rule:nonzero;stroke:none"
         d="m 2029.86,1362.64 c -26.66,-70.7 1.98,-163.63 67.03,-203.05 65.05,-39.42 67.03,31.54 80.82,31.54 13.8,0 -3.94,-70.96 19.72,-84.76 23.65,-13.81 49.28,61.1 70.97,45.33 21.68,-15.77 -5.92,-63.08 15.77,-70.97 18.61,-6.77 169.15,208.6 253.82,271 14.12,10.41 13.59,31.59 -1.25,40.94 -22.08,13.9 -48.01,29.01 -59.38,31.08 -21.69,3.94 -163.62,-206.99 -171.51,-234.59 -7.89,-27.6 21.68,80.82 1.97,78.85 -19.71,-1.97 -80.82,-88.7 -80.82,-88.7 0,0 155.73,279.92 124.19,281.89 -31.54,1.97 -273.19,29.04 -321.33,-98.56" /><path
         id="path144"
         style="fill:#2e3d7c;fill-opacity:1;fill-rule:nonzero;stroke:none"
         d="m 2358.91,1105.85 c 0,0 171.26,225.58 224.9,239.34 15.27,3.91 180.58,-53.23 231.78,-70.84 63.96,-22.02 55.75,-103.54 71.52,-111.42 15.77,-7.88 8.17,85.37 21.97,85.37 13.8,0 73.63,-47.55 63.09,-149.82 -4.1,-39.71 -61.67,-119.179 -138,-110.39 -29.44,3.379 9.85,159.67 -11.83,163.61 -21.69,3.94 -32.5,-161.559 -52.14,-160.02 -70.16,5.5 -91.76,104.82 -135.13,108.77 -43.37,3.94 -276.16,5.4 -276.16,5.4" /><g
         transform="scale(10)"
         id="g146"><text
           id="text150"
           style="font-variant:normal;font-weight:800;font-size:15.85490036px;font-family:Montserrat;-inkscape-font-specification:Montserrat-ExtraBold;writing-mode:lr-tb;fill:#2e3d7c;fill-opacity:1;fill-rule:nonzero;stroke:none"
           transform="matrix(1,0,0,-1,343.928,74.9422)"><tspan
             id="tspan148"
             y="0"
             x="0 18.534214 23.909025 36.688072 48.896347 59.154469 63.768242 74.02636 86.805412 100.21866 110.87315">WINGS SHOES</tspan></text>
</g><g
         transform="scale(10)"
         id="g152"><text
           id="text156"
           style="font-variant:normal;font-weight:normal;font-size:7.67040014px;font-family:Montserrat;-inkscape-font-specification:Montserrat-Regular;writing-mode:lr-tb;fill:#73d0c7;fill-opacity:1;fill-rule:nonzero;stroke:none"
           transform="matrix(1,0,0,-1,368.509,61.273)"><tspan
             id="tspan154"
             y="0"
             x="0 6.3207932 14.290515 21.369612 24.913559 31.993147 39.602036 47.372059 55.141594 61.807125 68.886711">FOR RUNNERS</tspan></text>
</g><path
         id="path158"
         style="fill:#73d0c7;fill-opacity:1;fill-rule:nonzero;stroke:none"
         d="m 3977.47,1235.24 c -17.03,0 -30.84,13.8 -30.84,30.83 0,17.03 13.81,30.83 30.84,30.83 17.02,0 30.83,-13.8 30.83,-30.83 0,-17.03 -13.81,-30.83 -30.83,-30.83 z m 0.12,100.77 c -39.86,0 -72.16,-32.31 -72.16,-72.16 0,-40.3 40.24,-85.08 60.62,-105.18 6.4,-6.31 16.62,-6.26 22.96,0.1 20.35,20.36 60.73,65.74 60.73,105.08 0,39.85 -32.31,72.16 -72.15,72.16" /><path
         id="path160"
         style="fill:#73d0c7;fill-opacity:1;fill-rule:nonzero;stroke:none"
         d="m 3787.39,1362.93 c -17.03,0 -30.83,13.8 -30.83,30.83 0,17.03 13.8,30.83 30.83,30.83 17.03,0 30.83,-13.8 30.83,-30.83 0,-17.03 -13.8,-30.83 -30.83,-30.83 z m 0.12,100.76 c -39.85,0 -72.16,-32.3 -72.16,-72.15 0,-40.3 40.26,-85.08 60.63,-105.18 6.39,-6.31 16.61,-6.26 22.96,0.1 20.35,20.36 60.73,65.74 60.73,105.08 0,39.85 -32.31,72.15 -72.16,72.15" /><path
         id="path162"
         style="fill:#2e3d7c;fill-opacity:1;fill-rule:nonzero;stroke:none"
         d="m 4326.75,1177.16 c -62.26,20.51 -184.57,176.49 -207.84,219.55 -8.46,15.65 -20.32,42.53 -31.78,68.51 -35.86,81.3 -43.32,96.52 -62.65,95.4 -7.92,-0.45 -19.54,-1.14 -47.55,-53.29 -16.69,5.29 -43.77,14.34 -66.24,24.15 -28.06,12.26 -46.45,31.52 -62.68,48.52 -21.4,22.4 -43.53,45.51 -79.4,38.45 -61.07,-12.15 -109.23,-92.77 -138.01,-140.93 -6.78,-11.34 -15.21,-25.44 -18.14,-28.42 -23.67,-22.56 -31.54,-61.35 -18.72,-92.23 3.6,-8.69 10.28,-24.61 140.37,-115.01 2.82,-12.88 14.26,-22.52 27.97,-22.52 15.84,0 28.67,12.84 28.67,28.68 0,15.83 -12.83,28.67 -28.67,28.67 -2.33,0 -4.57,-0.36 -6.75,-0.89 -105.96,73.73 -122.47,92.88 -124.65,96.41 -6.5,15.67 -2.39,36.73 9.37,47.93 6.33,6.02 12.55,16.22 24.88,36.86 23.71,39.68 67.83,113.53 111.49,122.21 13.19,2.64 21.66,-4.85 42.66,-26.84 17.9,-18.74 40.18,-42.07 75.6,-57.55 37.51,-16.38 84.78,-30.11 86.78,-30.69 l 15.95,-4.62 7.46,14.84 c 6.06,12.03 12.97,24.33 18.79,33.69 8.13,-16.44 18.85,-40.77 26.88,-58.96 11.77,-26.71 23.96,-54.32 33.17,-71.38 22.89,-42.36 151.92,-212.63 230.52,-238.53 40.56,-13.37 50.16,-28.87 50.54,-34.06 l -0.17,-2.4 c -0.41,-12.88 -31.63,-58.89 -61.9,-58.89 -0.08,0 -0.16,0 -0.24,0 -27.28,0.22 -93.52,-0.04 -148.16,-0.29 -29.29,-0.18 -57.74,8.08 -82.4,23.76 -22.05,14.03 -51.27,32.71 -84.19,53.96 -3.83,11.31 -14.42,19.5 -27.03,19.5 -15.84,0 -28.67,-12.84 -28.67,-28.68 0,-15.83 12.83,-28.67 28.67,-28.67 3.28,0 6.39,0.66 9.32,1.68 31.37,-20.24 59.22,-38.03 80.43,-51.54 30.9,-19.64 66.54,-30.01 103.14,-30.01 0.31,0 0.61,0 0.91,0 54.53,0.24 120.57,0.5 147.67,0.29 0.17,0 0.35,0 0.53,0 53.63,0 100.36,64.15 101.88,97.2 1.16,11.23 -0.73,50.75 -77.81,76.14" /><g
         transform="scale(10)"
         id="g164"><text
           id="text170"
           style="font-variant:normal;font-weight:800;font-size:19.65229988px;font-family:Montserrat;-inkscape-font-specification:Montserrat-ExtraBold;writing-mode:lr-tb;fill:#2e3d7c;fill-opacity:1;fill-rule:nonzero;stroke:none"
           transform="matrix(1,0,0,-1,199.349,264.79)"><tspan
             id="tspan166"
             y="0"
             x="0 14.542702 29.98941 45.829163 61.668919 68.331047 84.170799">RUNNING</tspan><tspan
             id="tspan168"
             y="23.5828"
             x="14.1 26.815039 42.654793 59.281246 72.487595">SHOES</tspan></text>
</g><g
         transform="scale(10)"
         id="g172"><text
           id="text176"
           style="font-variant:normal;font-weight:500;font-size:9.6415596px;font-family:Montserrat;-inkscape-font-specification:Montserrat-Medium;writing-mode:lr-tb;fill:#73d0c7;fill-opacity:1;fill-rule:nonzero;stroke:none"
           transform="matrix(1,0,0,-1,210.873,223.042)"><tspan
             id="tspan174"
             y="0"
             x="0 5.6596794 11.78207 18.434746 24.557137 27.150717 33.909504 40.031895 42.721352 45.410812 51.311447 56.88372 60.875324 63.564785 69.687172">Logo Collection</tspan></text>
</g><path
         id="path178"
         style="fill:#73d0c7;fill-opacity:1;fill-rule:nonzero;stroke:none"
         d="m 1830.43,2050.77 h 1319.14 v 978.45 H 1830.43 Z m 1349.14,-30 H 1800.43 V 3059.22 H 3179.57 V 2020.77" /><path
         id="path180"
         style="fill:#a4b6c6;fill-opacity:1;fill-rule:nonzero;stroke:none"
         d="m 2601.04,247.922 c -4.32,-4.422 -8.03,-9.313 -11.08,-14.531 l -4.66,2.41 c -0.66,2.98 -3.48,5.031 -6.58,4.668 -3.31,-0.387 -5.68,-3.387 -5.29,-6.699 0.39,-3.309 3.39,-5.68 6.7,-5.29 0.65,0.071 1.27,0.258 1.83,0.52 l 4.51,-2.34 c -2.51,-5.539 -4.32,-11.39 -5.39,-17.441 l 7.46,-1.309 c 2.31,13.059 8.5,25.059 17.92,34.719 l -5.42,5.293" /><path
         id="path182"
         style="fill:#a4b6c6;fill-opacity:1;fill-rule:nonzero;stroke:none"
         d="m 2655.92,270.949 c -1.71,0 -3.41,-0.07 -5.1,-0.179 l -0.73,6.261 c 1.87,1.5 2.96,3.899 2.65,6.449 -0.45,3.93 -4.02,6.739 -7.95,6.282 -3.93,-0.461 -6.74,-4.02 -6.28,-7.953 0.3,-2.539 1.89,-4.61 4.05,-5.637 l 0.73,-6.242 c -7.14,-1.16 -14.03,-3.321 -20.59,-6.461 l 3.27,-6.84 c 9.33,4.473 19.41,6.73 29.95,6.73 4.96,0 9.93,-0.527 14.74,-1.57 l 1.62,7.41 c -5.36,1.153 -10.85,1.75 -16.36,1.75" /><path
         id="path184"
         style="fill:#a4b6c6;fill-opacity:1;fill-rule:nonzero;stroke:none"
         d="m 2721.94,245.469 c 3.31,0.41 5.67,3.422 5.26,6.73 -0.4,3.301 -3.42,5.653 -6.72,5.25 -3.1,-0.379 -5.35,-3.039 -5.3,-6.078 l -4.16,-3.641 c -4.18,4.301 -8.9,8.129 -14.09,11.391 l -4.03,-6.402 c 11.34,-7.149 20.21,-17.27 25.64,-29.258 l 6.9,3.121 c -2.51,5.547 -5.67,10.719 -9.42,15.449 l 4.02,3.52 c 0.6,-0.129 1.25,-0.16 1.9,-0.082" /><path
         id="path186"
         style="fill:#a4b6c6;fill-opacity:1;fill-rule:nonzero;stroke:none"
         d="m 2650.44,168.859 c -3.86,-0.238 -7.74,-0.339 -11.57,-0.339 -8.8,0 -17.33,0.601 -24.78,1.781 -3.9,0.629 -8.46,1.558 -12.7,2.918 10.46,-18.598 30.69,-31.25 53.87,-31.25 28.57,0 52.63,19.16 59.51,45.043 -6.82,-4.492 -15.06,-8.25 -24.59,-11.231 -11.79,-3.672 -25.54,-6.062 -39.74,-6.922" /><path
         id="path188"
         style="fill:#a4b6c6;fill-opacity:1;fill-rule:nonzero;stroke:none"
         d="m 2681.7,199.719 c -7.5,0 -13.6,6.101 -13.6,13.601 0,7.5 6.1,13.602 13.6,13.602 7.5,0 13.6,-6.102 13.6,-13.602 0,-7.5 -6.1,-13.601 -13.6,-13.601 z m -47.37,-9.078 c -10.21,0 -18.5,8.3 -18.5,18.488 0,10.203 8.29,18.5 18.5,18.5 10.19,0 18.49,-8.297 18.49,-18.5 0,-10.188 -8.3,-18.488 -18.49,-18.488 z m 21.59,65.14 c -33.53,0 -60.79,-26.66 -60.79,-59.429 0,-4.262 0.46,-8.493 1.36,-12.622 6.74,-4.82 27.05,-8.898 53.48,-7.3 28.79,1.718 52.97,9.57 66.72,21.582 -0.06,1.949 -0.21,3.898 -0.45,5.82 -3.81,29.617 -29.74,51.949 -60.32,51.949" /><path
         id="path190"
         style="fill:#a4b6c6;fill-opacity:1;fill-rule:nonzero;stroke:none"
         d="m 2815.96,237.109 c -2.95,1.161 -8.06,3.09 -13.83,2.371 -5.51,-0.679 -8.44,-3.41 -8.44,-10.07 v -8.648 h 22.28 v -17.18 h -22.28 v -54.543 h -19.31 v 54.543 h -13.4 v 17.18 h 13.4 v 8.879 c 0,16.808 8.95,27.828 25.68,27.828 6.42,0 11.57,-1.219 15.9,-3.078 v -17.282" /><path
         id="path192"
         style="fill:#a4b6c6;fill-opacity:1;fill-rule:nonzero;stroke:none"
         d="m 2862.98,203.789 c -1.77,0.301 -3.58,0.461 -5.27,0.461 -8.95,0 -15.09,-5.469 -15.09,-16.129 v -39.082 h -19.32 v 71.723 h 18.73 v -7.852 c 4.51,6.738 11.4,9.781 20.21,9.781 4.14,0 8.47,-1.281 10.93,-3.371 l -10.19,-15.531" /><path
         id="path194"
         style="fill:#a4b6c6;fill-opacity:1;fill-rule:nonzero;stroke:none"
         d="m 2888.51,191.672 h 31.74 c -1.76,9.18 -7.32,14.359 -15.61,14.359 -9.1,0 -14.43,-5.48 -16.13,-14.359 z m 51.14,-6.66 c 0,-2.223 -0.15,-4.883 -0.37,-6.512 h -50.84 c 2.07,-10.359 9.32,-14.879 18.43,-14.879 6.21,0 12.94,2.508 18.13,6.879 l 11.32,-12.43 c -8.15,-7.468 -18.51,-10.879 -30.57,-10.879 -21.98,0 -37.22,14.95 -37.22,37.528 0,22.57 14.8,37.972 36.26,37.972 20.65,0 34.79,-15.332 34.86,-37.679" /><path
         id="path196"
         style="fill:#a4b6c6;fill-opacity:1;fill-rule:nonzero;stroke:none"
         d="m 2965.04,191.672 h 31.76 c -1.78,9.18 -7.34,14.359 -15.63,14.359 -9.1,0 -14.43,-5.48 -16.13,-14.359 z m 51.14,-6.66 c 0,-2.223 -0.14,-4.883 -0.37,-6.512 h -50.84 c 2.07,-10.359 9.32,-14.879 18.43,-14.879 6.21,0 12.95,2.508 18.13,6.879 l 11.32,-12.43 c -8.14,-7.468 -18.5,-10.879 -30.56,-10.879 -21.99,0 -37.23,14.95 -37.23,37.528 0,22.57 14.8,37.972 36.26,37.972 20.65,0 34.79,-15.332 34.86,-37.679" /><path
         id="path198"
         style="fill:#a4b6c6;fill-opacity:1;fill-rule:nonzero;stroke:none"
         d="m 3042.87,184.93 c 0,-11.321 7.47,-19.75 18.43,-19.75 11.4,0 18.5,8.8 18.5,19.75 0,10.961 -7.1,19.769 -18.5,19.769 -10.96,0 -18.43,-8.437 -18.43,-19.769 z m 56.77,0 c 0,-21.532 -14.95,-37.739 -34.71,-37.739 -9.63,0 -16.43,3.778 -21.09,9.321 V 119.43 h -19.25 v 101.332 h 18.88 v -7.922 c 4.66,5.84 11.54,9.851 21.38,9.851 19.84,0 34.79,-16.222 34.79,-37.761" /><path
         id="path200"
         style="fill:#a4b6c6;fill-opacity:1;fill-rule:nonzero;stroke:none"
         d="m 3128.09,149.039 h -19.32 v 71.723 h 19.32 z m 2.58,95.18 c 0,-6.949 -5.4,-12.289 -12.35,-12.289 -6.96,0 -12.29,5.34 -12.29,12.289 0,6.961 5.33,12.429 12.29,12.429 6.95,0 12.35,-5.468 12.35,-12.429" /><path
         id="path202"
         style="fill:#a4b6c6;fill-opacity:1;fill-rule:nonzero;stroke:none"
         d="m 3160.32,195.219 27.01,25.543 h 23.7 l -34.8,-33.75 35.01,-37.973 h -23.76 l -27.16,29.012 v -29.012 h -19.31 v 106.582 h 19.31 v -60.402" /><path
         id="path204"
         style="fill:#a4b6c6;fill-opacity:1;fill-rule:nonzero;stroke:none"
         d="m 1844.12,168.879 v 32.082 c -3.95,6.148 -12.45,11.418 -21.23,11.418 -14.21,0 -22.71,-11.719 -22.71,-27.391 0,-15.668 8.5,-27.25 22.71,-27.25 8.78,0 17.28,4.981 21.23,11.141 z m 0,-19.188 v 10.539 c -5.27,-7.171 -13.91,-12.3 -23.87,-12.3 -18.46,0 -31.5,14.062 -31.5,37.058 0,22.563 12.9,37.211 31.5,37.211 9.52,0 18.16,-4.687 23.87,-12.449 v 37.641 h 10.99 v -97.7 h -10.99" /><path
         id="path206"
         style="fill:#a4b6c6;fill-opacity:1;fill-rule:nonzero;stroke:none"
         d="m 1904.03,213.121 c -15.08,0 -22.56,-12.75 -23.14,-23.59 h 46.43 c -0.14,10.551 -7.17,23.59 -23.29,23.59 z m -34.71,-27.98 c 0,20.5 14.64,37.058 34.86,37.058 21.39,0 33.98,-16.699 33.98,-37.937 v -2.793 h -57.27 c 0.88,-13.328 10.25,-24.457 25.49,-24.457 8.05,0 16.26,3.218 21.82,8.937 l 5.28,-7.179 c -7.03,-7.028 -16.56,-10.84 -28.13,-10.84 -20.95,0 -36.03,15.09 -36.03,37.211" /><path
         id="path208"
         style="fill:#a4b6c6;fill-opacity:1;fill-rule:nonzero;stroke:none"
         d="m 1946.07,159.059 5.71,7.91 c 4.69,-5.418 13.63,-10.098 23.29,-10.098 10.84,0 16.7,5.121 16.7,12.149 0,17.14 -43.8,6.601 -43.8,32.82 0,10.98 9.53,20.359 26.37,20.359 12.01,0 20.51,-4.539 26.22,-10.258 l -5.13,-7.609 c -4.24,5.117 -12.01,8.93 -21.09,8.93 -9.67,0 -15.67,-4.832 -15.67,-11.133 0,-15.527 43.79,-5.27 43.79,-32.809 0,-11.871 -9.52,-21.39 -27.83,-21.39 -11.57,0 -21.38,3.519 -28.56,11.129" /><path
         id="path210"
         style="fill:#a4b6c6;fill-opacity:1;fill-rule:nonzero;stroke:none"
         d="m 2016.67,149.691 v 70.75 h 10.99 v -70.75 z m -1.9,88.18 c 0,4.098 3.37,7.461 7.32,7.461 4.1,0 7.47,-3.363 7.47,-7.461 0,-4.101 -3.37,-7.32 -7.47,-7.32 -3.95,0 -7.32,3.219 -7.32,7.32" /><path
         id="path212"
         style="fill:#a4b6c6;fill-opacity:1;fill-rule:nonzero;stroke:none"
         d="m 2097.08,170.051 v 30.91 c -3.8,6.148 -12.3,11.418 -21.09,11.418 -14.21,0 -22.7,-11.277 -22.7,-26.949 0,-15.532 8.49,-26.95 22.7,-26.95 8.79,0 17.29,5.422 21.09,11.571 z m -51.26,-38.531 5.57,8.21 c 5.85,-7.031 12.89,-9.671 22.99,-9.671 11.72,0 22.7,5.711 22.7,21.242 v 10.109 c -5.12,-7.18 -13.76,-12.601 -23.73,-12.601 -18.45,0 -31.49,13.773 -31.49,36.621 0,22.711 12.89,36.769 31.49,36.769 9.53,0 18.02,-4.687 23.73,-12.449 v 10.691 h 10.99 v -68.699 c 0,-23.441 -16.4,-30.762 -33.69,-30.762 -12.01,0 -20.21,2.34 -28.56,10.54" /><path
         id="path214"
         style="fill:#a4b6c6;fill-opacity:1;fill-rule:nonzero;stroke:none"
         d="m 2174.13,149.691 v 46.289 c 0,12.45 -6.29,16.399 -15.81,16.399 -8.65,0 -16.86,-5.27 -20.95,-10.977 v -51.711 h -10.99 v 70.75 h 10.99 v -10.25 c 4.98,5.86 14.64,12.008 25.19,12.008 14.79,0 22.56,-7.469 22.56,-22.847 v -49.661 h -10.99" /><path
         id="path216"
         style="fill:#a4b6c6;fill-opacity:1;fill-rule:nonzero;stroke:none"
         d="m 2234.04,213.121 c -15.08,0 -22.56,-12.75 -23.14,-23.59 h 46.43 c -0.15,10.551 -7.18,23.59 -23.29,23.59 z m -34.71,-27.98 c 0,20.5 14.64,37.058 34.86,37.058 21.38,0 33.98,-16.699 33.98,-37.937 v -2.793 h -57.27 c 0.88,-13.328 10.25,-24.457 25.49,-24.457 8.05,0 16.25,3.218 21.82,8.937 l 5.27,-7.179 c -7.03,-7.028 -16.55,-10.84 -28.12,-10.84 -20.95,0 -36.03,15.09 -36.03,37.211" /><path
         id="path218"
         style="fill:#a4b6c6;fill-opacity:1;fill-rule:nonzero;stroke:none"
         d="m 2333.5,168.879 v 32.082 c -3.96,6.148 -12.45,11.418 -21.24,11.418 -14.21,0 -22.7,-11.719 -22.7,-27.391 0,-15.668 8.49,-27.25 22.7,-27.25 8.79,0 17.28,4.981 21.24,11.141 z m 0,-19.188 v 10.539 c -5.27,-7.171 -13.92,-12.3 -23.88,-12.3 -18.45,0 -31.49,14.062 -31.49,37.058 0,22.563 12.89,37.211 31.49,37.211 9.52,0 18.17,-4.687 23.88,-12.449 v 37.641 h 10.98 v -97.7 h -10.98" /><path
         id="path220"
         style="fill:#a4b6c6;fill-opacity:1;fill-rule:nonzero;stroke:none"
         d="m 2429,157.738 c 14.35,0 22.85,11.582 22.85,27.25 0,15.672 -8.5,27.391 -22.85,27.391 -8.64,0 -17.29,-5.27 -21.09,-11.418 v -32.082 c 3.8,-6.16 12.45,-11.141 21.09,-11.141 z m -32.08,-8.047 v 97.7 h 10.99 V 209.75 c 5.71,7.762 14.2,12.449 23.87,12.449 18.46,0 31.5,-14.648 31.5,-37.211 0,-22.996 -13.04,-37.058 -31.5,-37.058 -9.96,0 -18.6,5.129 -23.87,12.3 v -10.539 h -10.99" /><path
         id="path222"
         style="fill:#a4b6c6;fill-opacity:1;fill-rule:nonzero;stroke:none"
         d="m 2475.28,131.961 c 1.61,-0.731 4.26,-1.172 6.01,-1.172 4.83,0 8.06,1.609 10.55,7.473 l 4.68,10.699 -29.59,71.48 h 11.87 l 23.58,-58.011 23.44,58.011 h 12.01 l -35.45,-85.109 c -4.25,-10.25 -11.42,-14.211 -20.8,-14.352 -2.34,0 -6,0.442 -8.05,1.02 l 1.75,9.961" /></g></g></svg>